<?xml version="1.0" standalone="no"?>
<!DOCTYPE svg PUBLIC "-//W3C//DTD SVG 20010904//EN"
 "http://www.w3.org/TR/2001/REC-SVG-20010904/DTD/svg10.dtd">
<svg version="1.0" xmlns="http://www.w3.org/2000/svg"
 width="1280.000000pt" height="1280.000000pt" viewBox="0 0 1280.000000 1280.000000"
 preserveAspectRatio="xMidYMid meet">
<metadata>
Created by potrace 1.14, written by Peter Selinger 2001-2017
</metadata>
<g transform="translate(0.000000,1280.000000) scale(0.100000,-0.100000)"
fill="#000000" stroke="none">
<path d="M6087 12794 c-2 -2 -50 -6 -108 -9 -57 -3 -115 -7 -129 -10 -14 -2
-60 -6 -103 -10 -43 -3 -86 -8 -96 -10 -10 -2 -42 -6 -72 -10 -30 -3 -67 -9
-84 -11 -16 -3 -46 -7 -65 -10 -19 -2 -57 -8 -85 -14 -27 -5 -66 -12 -85 -15
-19 -3 -42 -8 -50 -10 -8 -2 -30 -7 -48 -10 -59 -10 -174 -35 -256 -56 -45
-12 -88 -22 -96 -24 -8 -2 -40 -10 -71 -19 -31 -9 -65 -18 -75 -21 -17 -3
-181 -54 -289 -90 -68 -22 -307 -112 -360 -135 -54 -24 -99 -42 -102 -41 -10
1 -484 -228 -493 -239 -3 -3 -23 -14 -45 -25 -83 -42 -386 -226 -510 -310
-123 -84 -377 -269 -406 -297 -8 -7 -34 -29 -59 -48 -25 -19 -50 -39 -56 -45
-6 -5 -35 -30 -64 -55 -157 -132 -416 -383 -566 -549 -27 -30 -62 -69 -79 -86
-16 -18 -43 -49 -60 -70 -16 -20 -38 -46 -48 -58 -11 -12 -33 -39 -50 -61 -18
-21 -42 -51 -54 -65 -11 -15 -60 -78 -107 -141 -47 -63 -92 -124 -100 -135 -9
-11 -28 -38 -42 -60 -15 -22 -53 -78 -84 -125 -73 -109 -225 -363 -276 -460
-21 -41 -41 -77 -44 -80 -11 -11 -144 -287 -197 -408 -112 -257 -263 -672
-288 -796 -3 -11 -11 -40 -20 -65 -8 -25 -16 -55 -18 -66 -2 -11 -9 -38 -15
-60 -13 -42 -67 -279 -77 -330 -2 -16 -7 -43 -10 -60 -3 -16 -10 -52 -15 -80
-5 -27 -12 -65 -15 -82 -3 -18 -7 -45 -9 -60 -3 -16 -8 -48 -11 -73 -3 -25 -8
-56 -10 -70 -2 -14 -7 -52 -10 -85 -4 -33 -8 -73 -10 -90 -6 -45 -14 -138 -22
-245 -9 -125 -9 -741 0 -850 4 -47 9 -110 12 -140 4 -64 15 -164 20 -200 2
-14 7 -47 10 -75 3 -27 8 -61 10 -75 3 -14 7 -45 10 -70 3 -25 8 -56 10 -70 3
-14 12 -63 21 -110 8 -47 16 -94 19 -105 7 -39 44 -202 49 -216 3 -8 7 -27 10
-44 6 -36 12 -59 66 -245 78 -274 189 -578 310 -850 98 -218 338 -660 455
-837 14 -21 30 -45 35 -53 94 -146 293 -413 424 -569 135 -161 237 -272 391
-426 197 -196 318 -306 460 -420 28 -22 52 -42 55 -46 6 -6 217 -169 246 -189
139 -97 335 -230 340 -230 2 0 34 -20 71 -44 348 -224 931 -494 1368 -633 142
-45 369 -110 397 -113 4 -1 22 -6 40 -11 37 -11 29 -9 187 -43 175 -38 320
-64 442 -80 25 -4 57 -9 70 -11 13 -2 51 -6 83 -10 33 -3 73 -7 90 -10 219
-28 808 -41 1046 -22 146 11 201 16 255 22 28 3 70 7 95 10 45 4 167 22 225
31 17 3 44 7 60 10 17 2 41 6 55 9 14 3 39 7 55 10 17 3 44 8 60 12 17 3 37 7
45 9 29 4 215 45 255 55 39 11 51 14 97 24 23 5 92 25 243 71 50 15 93 29 98
30 4 1 9 3 12 4 3 1 8 3 13 4 47 11 367 130 449 167 24 10 45 19 47 19 3 0 39
16 80 35 42 19 78 35 81 35 8 0 327 160 400 200 179 98 441 259 588 362 72 50
173 123 177 128 3 3 34 27 70 53 36 26 74 56 85 65 11 10 43 35 70 57 28 22
57 46 66 55 9 8 38 33 65 55 117 97 469 441 583 570 29 33 65 74 80 90 15 17
45 53 66 80 22 28 45 55 51 60 6 6 28 33 50 60 21 28 42 52 45 55 3 3 10 12
15 21 5 9 21 32 36 50 120 150 348 492 446 669 14 25 34 61 45 80 66 117 227
433 227 445 0 3 15 38 34 78 35 72 59 127 60 137 1 3 9 26 20 50 29 71 34 82
56 140 12 30 26 64 31 75 4 11 33 97 63 190 72 227 87 276 92 300 2 11 15 63
29 115 21 78 62 254 81 345 2 11 6 32 9 47 4 15 8 39 10 55 2 15 6 37 8 48 6
25 16 91 22 130 4 30 10 70 21 143 3 20 7 51 8 67 2 17 6 59 10 95 4 36 9 85
11 110 15 139 19 269 19 575 0 187 -3 378 -7 425 -14 163 -18 205 -22 240 -2
19 -7 60 -10 90 -8 68 -11 87 -24 175 -22 144 -27 178 -36 215 -3 14 -8 41
-11 60 -3 19 -7 44 -9 55 -6 33 -44 200 -49 216 -3 8 -7 28 -10 44 -10 58 -94
351 -142 495 -60 178 -159 432 -235 600 -63 140 -238 483 -280 550 -9 14 -47
77 -84 140 -127 213 -334 507 -504 715 -35 44 -67 82 -71 85 -3 3 -18 21 -34
40 -107 132 -433 467 -575 590 -41 36 -84 74 -95 85 -12 11 -55 47 -96 80 -41
33 -77 63 -80 66 -14 18 -287 220 -405 300 -60 41 -112 76 -115 79 -7 7 -41
28 -65 40 -11 6 -40 23 -65 39 -189 122 -569 322 -801 420 -79 34 -153 66
-164 70 -11 5 -47 19 -80 31 -65 24 -84 31 -129 49 -38 16 -232 81 -271 91
-16 5 -61 18 -100 30 -38 12 -101 30 -140 40 -38 10 -79 21 -90 24 -45 13
-232 55 -265 61 -19 3 -47 8 -62 11 -15 3 -30 5 -33 5 -2 0 -19 4 -37 10 -18
5 -57 11 -87 15 -31 3 -59 8 -62 10 -4 2 -22 6 -40 8 -112 16 -191 26 -244 32
-33 3 -68 8 -77 10 -10 1 -57 6 -105 9 -49 4 -106 9 -128 12 -51 5 -733 12
-738 7z"/>
</g>
</svg>
